<svg xmlns="http://www.w3.org/2000/svg" width="140" height="110" viewBox="0 0 140 110" fill="none">
<circle cx="2.5" cy="2.5" r="2.5" fill="#8c4014"/>
<circle cx="17.5" cy="2.5" r="2.5" fill="#8c4014"/>
<circle cx="32.5" cy="2.5" r="2.5" fill="#8c4014"/>
<circle cx="47.5" cy="2.5" r="2.5" fill="#8c4014"/>
<circle cx="62.5" cy="2.5" r="2.5" fill="#8c4014"/>
<circle cx="77.5" cy="2.5" r="2.5" fill="#8c4014"/>
<circle cx="92.5" cy="2.5" r="2.5" fill="#8c4014"/>
<circle cx="107.5" cy="2.5" r="2.5" fill="#8c4014"/>
<circle cx="122.5" cy="2.5" r="2.5" fill="#8c4014"/>
<circle cx="137.5" cy="2.5" r="2.5" fill="#8c4014"/>
<circle cx="2.5" cy="17.5" r="2.5" fill="#8c4014"/>
<circle cx="17.5" cy="17.5" r="2.5" fill="#8c4014"/>
<circle cx="32.5" cy="17.5" r="2.5" fill="#8c4014"/>
<circle cx="47.5" cy="17.5" r="2.5" fill="#8c4014"/>
<circle cx="62.5" cy="17.5" r="2.5" fill="#8c4014"/>
<circle cx="77.5" cy="17.5" r="2.5" fill="#8c4014"/>
<circle cx="92.5" cy="17.5" r="2.5" fill="#8c4014"/>
<circle cx="107.5" cy="17.5" r="2.5" fill="#8c4014"/>
<circle cx="122.5" cy="17.5" r="2.5" fill="#8c4014"/>
<circle cx="137.5" cy="17.5" r="2.5" fill="#8c4014"/>
<circle cx="2.5" cy="32.5" r="2.5" fill="#8c4014"/>
<circle cx="17.5" cy="32.5" r="2.5" fill="#8c4014"/>
<circle cx="32.5" cy="32.5" r="2.5" fill="#8c4014"/>
<circle cx="47.5" cy="32.5" r="2.5" fill="#8c4014"/>
<circle cx="62.5" cy="32.5" r="2.5" fill="#8c4014"/>
<circle cx="77.5" cy="32.5" r="2.5" fill="#8c4014"/>
<circle cx="92.5" cy="32.5" r="2.5" fill="#8c4014"/>
<circle cx="107.5" cy="32.5" r="2.5" fill="#8c4014"/>
<circle cx="122.5" cy="32.5" r="2.5" fill="#8c4014"/>
<circle cx="137.5" cy="32.5" r="2.5" fill="#8c4014"/>
<circle cx="2.5" cy="47.5" r="2.5" fill="#8c4014"/>
<circle cx="17.5" cy="47.5" r="2.5" fill="#8c4014"/>
<circle cx="32.5" cy="47.5" r="2.5" fill="#8c4014"/>
<circle cx="47.5" cy="47.5" r="2.5" fill="#8c4014"/>
<circle cx="62.5" cy="47.5" r="2.5" fill="#8c4014"/>
<circle cx="77.5" cy="47.5" r="2.5" fill="#8c4014"/>
<circle cx="92.5" cy="47.5" r="2.5" fill="#8c4014"/>
<circle cx="107.5" cy="47.5" r="2.5" fill="#8c4014"/>
<circle cx="122.5" cy="47.5" r="2.5" fill="#8c4014"/>
<circle cx="137.5" cy="47.5" r="2.5" fill="#8c4014"/>
<circle cx="2.5" cy="62.5" r="2.5" fill="#8c4014"/>
<circle cx="17.5" cy="62.5" r="2.5" fill="#8c4014"/>
<circle cx="32.5" cy="62.5" r="2.5" fill="#8c4014"/>
<circle cx="47.5" cy="62.5" r="2.5" fill="#8c4014"/>
<circle cx="62.5" cy="62.5" r="2.5" fill="#8c4014"/>
<circle cx="77.5" cy="62.5" r="2.5" fill="#8c4014"/>
<circle cx="92.5" cy="62.5" r="2.5" fill="#8c4014"/>
<circle cx="107.5" cy="62.5" r="2.5" fill="#8c4014"/>
<circle cx="122.5" cy="62.5" r="2.5" fill="#8c4014"/>
<circle cx="137.5" cy="62.5" r="2.5" fill="#8c4014"/>
<circle cx="2.5" cy="77.5" r="2.5" fill="#8c4014"/>
<circle cx="17.5" cy="77.5" r="2.5" fill="#8c4014"/>
<circle cx="32.5" cy="77.5" r="2.5" fill="#8c4014"/>
<circle cx="47.5" cy="77.5" r="2.5" fill="#8c4014"/>
<circle cx="62.5" cy="77.5" r="2.5" fill="#8c4014"/>
<circle cx="77.5" cy="77.5" r="2.5" fill="#8c4014"/>
<circle cx="92.5" cy="77.5" r="2.5" fill="#8c4014"/>
<circle cx="107.5" cy="77.5" r="2.5" fill="#8c4014"/>
<circle cx="122.5" cy="77.5" r="2.5" fill="#8c4014"/>
<circle cx="137.5" cy="77.5" r="2.5" fill="#8c4014"/>
<circle cx="2.5" cy="92.5" r="2.5" fill="#8c4014"/>
<circle cx="17.5" cy="92.5" r="2.5" fill="#8c4014"/>
<circle cx="32.5" cy="92.5" r="2.5" fill="#8c4014"/>
<circle cx="47.5" cy="92.5" r="2.5" fill="#8c4014"/>
<circle cx="62.5" cy="92.5" r="2.5" fill="#8c4014"/>
<circle cx="77.5" cy="92.5" r="2.5" fill="#8c4014"/>
<circle cx="92.5" cy="92.5" r="2.5" fill="#8c4014"/>
<circle cx="107.5" cy="92.5" r="2.5" fill="#8c4014"/>
<circle cx="122.5" cy="92.5" r="2.5" fill="#8c4014"/>
<circle cx="137.5" cy="92.5" r="2.5" fill="#8c4014"/>
<circle cx="2.5" cy="107.5" r="2.5" fill="#8c4014"/>
<circle cx="17.5" cy="107.5" r="2.5" fill="#8c4014"/>
<circle cx="32.5" cy="107.5" r="2.5" fill="#8c4014"/>
<circle cx="47.5" cy="107.5" r="2.5" fill="#8c4014"/>
<circle cx="62.5" cy="107.5" r="2.5" fill="#8c4014"/>
<circle cx="77.5" cy="107.5" r="2.5" fill="#8c4014"/>
<circle cx="92.5" cy="107.5" r="2.5" fill="#8c4014"/>
<circle cx="107.5" cy="107.5" r="2.5" fill="#8c4014"/>
<circle cx="122.5" cy="107.5" r="2.5" fill="#8c4014"/>
<circle cx="137.5" cy="107.5" r="2.5" fill="#8c4014"/>
</svg>