<svg xmlns="http://www.w3.org/2000/svg" xmlns:xlink="http://www.w3.org/1999/xlink" width="320" zoomAndPan="magnify" viewBox="0 0 240 239.999995" height="320" preserveAspectRatio="xMidYMid meet" version="1.0"><defs><clipPath id="08d041164a"><path d="M 4 0.160156 L 211 0.160156 L 211 234.878906 L 4 234.878906 Z M 4 0.160156 " clip-rule="nonzero"/></clipPath><clipPath id="711efc8171"><path d="M 4 0.160156 L 211 0.160156 L 211 121.40625 L 4 121.40625 Z M 4 0.160156 " clip-rule="nonzero"/></clipPath><clipPath id="640f0cdb8a"><path d="M 0.464844 111.09375 L 21.632812 111.09375 L 21.632812 132.261719 L 0.464844 132.261719 Z M 0.464844 111.09375 " clip-rule="nonzero"/></clipPath><clipPath id="fceef4118c"><path d="M 11.046875 111.09375 C 5.203125 111.09375 0.464844 115.832031 0.464844 121.679688 C 0.464844 127.523438 5.203125 132.261719 11.046875 132.261719 C 16.894531 132.261719 21.632812 127.523438 21.632812 121.679688 C 21.632812 115.832031 16.894531 111.09375 11.046875 111.09375 Z M 11.046875 111.09375 " clip-rule="nonzero"/></clipPath><clipPath id="ba42307ebb"><path d="M 0.464844 0.09375 L 21.632812 0.09375 L 21.632812 21.261719 L 0.464844 21.261719 Z M 0.464844 0.09375 " clip-rule="nonzero"/></clipPath><clipPath id="6fee14eccf"><path d="M 11.046875 0.09375 C 5.203125 0.09375 0.464844 4.832031 0.464844 10.679688 C 0.464844 16.523438 5.203125 21.261719 11.046875 21.261719 C 16.894531 21.261719 21.632812 16.523438 21.632812 10.679688 C 21.632812 4.832031 16.894531 0.09375 11.046875 0.09375 Z M 11.046875 0.09375 " clip-rule="nonzero"/></clipPath><clipPath id="3d82ef612f"><rect x="0" width="22" y="0" height="22"/></clipPath><clipPath id="3af4237e83"><path d="M 5.046875 115.675781 L 17.050781 115.675781 L 17.050781 127.679688 L 5.046875 127.679688 Z M 5.046875 115.675781 " clip-rule="nonzero"/></clipPath><clipPath id="5a0e58a96a"><path d="M 11.046875 115.675781 C 7.734375 115.675781 5.046875 118.363281 5.046875 121.679688 C 5.046875 124.992188 7.734375 127.679688 11.046875 127.679688 C 14.363281 127.679688 17.050781 124.992188 17.050781 121.679688 C 17.050781 118.363281 14.363281 115.675781 11.046875 115.675781 Z M 11.046875 115.675781 " clip-rule="nonzero"/></clipPath><clipPath id="8709959ca4"><path d="M 0.046875 0.675781 L 12.050781 0.675781 L 12.050781 12.679688 L 0.046875 12.679688 Z M 0.046875 0.675781 " clip-rule="nonzero"/></clipPath><clipPath id="907b682eb5"><path d="M 6.046875 0.675781 C 2.734375 0.675781 0.046875 3.363281 0.046875 6.679688 C 0.046875 9.992188 2.734375 12.679688 6.046875 12.679688 C 9.363281 12.679688 12.050781 9.992188 12.050781 6.679688 C 12.050781 3.363281 9.363281 0.675781 6.046875 0.675781 Z M 6.046875 0.675781 " clip-rule="nonzero"/></clipPath><clipPath id="f599233afe"><rect x="0" width="13" y="0" height="13"/></clipPath><clipPath id="a8de158c9f"><path d="M 192.820312 111.09375 L 213.988281 111.09375 L 213.988281 132.261719 L 192.820312 132.261719 Z M 192.820312 111.09375 " clip-rule="nonzero"/></clipPath><clipPath id="b226d6de3c"><path d="M 203.402344 111.09375 C 197.558594 111.09375 192.820312 115.832031 192.820312 121.679688 C 192.820312 127.523438 197.558594 132.261719 203.402344 132.261719 C 209.25 132.261719 213.988281 127.523438 213.988281 121.679688 C 213.988281 115.832031 209.25 111.09375 203.402344 111.09375 Z M 203.402344 111.09375 " clip-rule="nonzero"/></clipPath><clipPath id="00997df55c"><path d="M 0.820312 0.09375 L 21.988281 0.09375 L 21.988281 21.261719 L 0.820312 21.261719 Z M 0.820312 0.09375 " clip-rule="nonzero"/></clipPath><clipPath id="9ccdac1ba6"><path d="M 11.402344 0.09375 C 5.558594 0.09375 0.820312 4.832031 0.820312 10.679688 C 0.820312 16.523438 5.558594 21.261719 11.402344 21.261719 C 17.25 21.261719 21.988281 16.523438 21.988281 10.679688 C 21.988281 4.832031 17.25 0.09375 11.402344 0.09375 Z M 11.402344 0.09375 " clip-rule="nonzero"/></clipPath><clipPath id="3e93a8b4e6"><rect x="0" width="22" y="0" height="22"/></clipPath><clipPath id="62b0d06435"><path d="M 197.402344 115.675781 L 209.40625 115.675781 L 209.40625 127.679688 L 197.402344 127.679688 Z M 197.402344 115.675781 " clip-rule="nonzero"/></clipPath><clipPath id="4c2f801bf1"><path d="M 203.402344 115.675781 C 200.089844 115.675781 197.402344 118.363281 197.402344 121.679688 C 197.402344 124.992188 200.089844 127.679688 203.402344 127.679688 C 206.71875 127.679688 209.40625 124.992188 209.40625 121.679688 C 209.40625 118.363281 206.71875 115.675781 203.402344 115.675781 Z M 203.402344 115.675781 " clip-rule="nonzero"/></clipPath><clipPath id="9e34df82c9"><path d="M 0.402344 0.675781 L 12.40625 0.675781 L 12.40625 12.679688 L 0.402344 12.679688 Z M 0.402344 0.675781 " clip-rule="nonzero"/></clipPath><clipPath id="712aaf6963"><path d="M 6.402344 0.675781 C 3.089844 0.675781 0.402344 3.363281 0.402344 6.679688 C 0.402344 9.992188 3.089844 12.679688 6.402344 12.679688 C 9.71875 12.679688 12.40625 9.992188 12.40625 6.679688 C 12.40625 3.363281 9.71875 0.675781 6.402344 0.675781 Z M 6.402344 0.675781 " clip-rule="nonzero"/></clipPath><clipPath id="d40df1e56d"><rect x="0" width="13" y="0" height="13"/></clipPath><clipPath id="cdec5d3102"><path d="M 100.996094 43.539062 L 113.003906 43.539062 L 113.003906 55.542969 L 100.996094 55.542969 Z M 100.996094 43.539062 " clip-rule="nonzero"/></clipPath><clipPath id="b454a00e32"><path d="M 107 43.539062 C 103.683594 43.539062 100.996094 46.226562 100.996094 49.539062 C 100.996094 52.855469 103.683594 55.542969 107 55.542969 C 110.316406 55.542969 113.003906 52.855469 113.003906 49.539062 C 113.003906 46.226562 110.316406 43.539062 107 43.539062 Z M 107 43.539062 " clip-rule="nonzero"/></clipPath><clipPath id="cda5a548e7"><path d="M 0.996094 0.539062 L 13.003906 0.539062 L 13.003906 12.542969 L 0.996094 12.542969 Z M 0.996094 0.539062 " clip-rule="nonzero"/></clipPath><clipPath id="ed73040866"><path d="M 7 0.539062 C 3.683594 0.539062 0.996094 3.226562 0.996094 6.539062 C 0.996094 9.855469 3.683594 12.542969 7 12.542969 C 10.316406 12.542969 13.003906 9.855469 13.003906 6.539062 C 13.003906 3.226562 10.316406 0.539062 7 0.539062 Z M 7 0.539062 " clip-rule="nonzero"/></clipPath><clipPath id="40506df144"><rect x="0" width="14" y="0" height="13"/></clipPath><clipPath id="9540cb9280"><rect x="0" width="215" y="0" height="235"/></clipPath></defs><g transform="matrix(1, 0, 0, 1, 13, 2)"><g clip-path="url(#9540cb9280)"><g clip-path="url(#08d041164a)"><path fill="#8c4010" d="M 106.285156 0.402344 C 105.550781 0.679688 92.960938 7.921875 80.75 15.023438 C 67.386719 22.824219 47.660156 34.261719 28.980469 45 C 9.144531 56.441406 6.171875 58.257812 5.542969 59.484375 C 5.089844 60.355469 5.019531 67.527344 4.914062 116.640625 C 4.84375 156.203125 4.949219 173.308594 5.226562 174.605469 C 5.507812 176.039062 5.859375 176.632812 6.699219 177.296875 C 8.0625 178.277344 17.679688 183.910156 39.472656 196.398438 C 48.605469 201.644531 58.46875 207.308594 61.335938 208.988281 C 64.242188 210.667969 73.441406 215.984375 81.800781 220.8125 C 90.160156 225.605469 98.941406 230.675781 101.285156 232.078125 C 106.078125 234.910156 107.824219 235.363281 109.75 234.351562 C 111.007812 233.722656 136.371094 219.132812 148.089844 212.3125 C 152.144531 209.96875 158.828125 206.121094 162.957031 203.742188 C 167.082031 201.398438 176.003906 196.257812 182.71875 192.375 C 189.46875 188.457031 198.039062 183.523438 201.785156 181.355469 C 205.527344 179.1875 208.882812 177.15625 209.199219 176.84375 C 209.550781 176.527344 209.96875 175.375 210.179688 174.289062 C 210.425781 172.996094 210.527344 153.929688 210.457031 116.222656 C 210.355469 65.113281 210.320312 60.042969 209.792969 59.238281 C 209.199219 58.363281 201.015625 53.359375 187.441406 45.628906 C 183.3125 43.25 173.167969 37.410156 164.878906 32.582031 C 148.367188 23 116.957031 4.84375 112.199219 2.183594 C 109.261719 0.539062 107.371094 -0.0546875 106.285156 0.402344 Z M 117.445312 20.515625 C 126.332031 25.585938 175.6875 54.234375 187.792969 61.371094 C 190.976562 63.261719 194.367188 65.21875 195.3125 65.746094 L 197.0625 66.722656 L 196.992188 117.621094 L 196.886719 168.480469 L 192.445312 171.210938 C 186.8125 174.605469 114.332031 216.71875 109.890625 219.167969 C 107.792969 220.324219 107.652344 220.324219 106.742188 219.796875 C 105.691406 219.203125 99.886719 215.8125 80.925781 204.792969 C 67.421875 196.957031 51.890625 188 40.875 181.703125 C 36.746094 179.359375 29.925781 175.375 25.761719 172.855469 L 18.136719 168.308594 L 18.136719 66.96875 L 19.464844 66.164062 C 22.195312 64.414062 93.972656 22.648438 101.390625 18.449219 C 107.265625 15.128906 107.089844 15.234375 107.652344 15.199219 C 107.894531 15.199219 112.304688 17.574219 117.445312 20.515625 Z M 117.445312 20.515625 " fill-opacity="1" fill-rule="nonzero"/></g><path fill="#4c5939" d="M 150.042969 55.773438 C 135.269531 57.277344 123.199219 64.238281 115.742188 75.566406 C 112.808594 80.039062 110.40625 85.871094 109.042969 91.914062 C 108.445312 94.5625 107.542969 99.496094 107.542969 100.167969 C 107.542969 100.46875 107.472656 100.785156 107.367188 100.839844 C 107.257812 100.910156 107.1875 100.730469 107.1875 100.449219 C 107.1875 99 104.324219 89.527344 102.859375 86.082031 C 101.410156 82.6875 99.589844 79.507812 97.46875 76.714844 C 93.6875 71.730469 87.609375 67.03125 81.5625 64.414062 C 76.015625 62.03125 70.253906 60.652344 64.457031 60.332031 L 62.300781 60.226562 L 62.300781 60.933594 C 62.300781 66.128906 64.988281 75.265625 68.167969 80.867188 C 70.042969 84.171875 72.199219 87.125 74.390625 89.421875 C 75.875 90.960938 78.859375 93.46875 80.574219 94.601562 C 84.550781 97.214844 90.4375 99.582031 95.171875 100.46875 C 97.804688 100.945312 99.238281 101.136719 99.238281 101.015625 C 99.238281 100.765625 96.566406 95.625 95.523438 93.859375 C 92.46875 88.695312 89.535156 84.878906 85.539062 80.851562 C 82.941406 78.234375 81.582031 77.035156 79.390625 75.390625 C 78.296875 74.578125 79.054688 74.878906 81.085938 76.042969 C 86.070312 78.941406 90.417969 82.652344 94.164062 87.210938 C 99.925781 94.265625 102.964844 101.597656 104.113281 111.175781 C 104.519531 114.445312 104.554688 122.097656 104.203125 128.195312 C 104.027344 131.164062 104.007812 132.628906 104.132812 132.753906 C 104.308594 132.929688 109.59375 133.035156 109.769531 132.859375 C 109.839844 132.808594 109.785156 130.949219 109.664062 128.722656 C 109.414062 124.21875 109.523438 113.648438 109.820312 111.175781 C 110.828125 103.222656 112.613281 97.746094 116.078125 91.894531 C 118.585938 87.691406 123.429688 82.175781 127.511719 78.90625 C 129.757812 77.121094 135.816406 73.109375 135.816406 73.429688 C 135.816406 73.480469 135.058594 74.101562 134.121094 74.789062 C 127.847656 79.488281 121.554688 87.230469 117.332031 95.449219 C 116.132812 97.78125 115.089844 100.042969 115.160156 100.113281 C 115.335938 100.289062 120.054688 99.441406 121.980469 98.894531 C 131.523438 96.207031 139.371094 90.78125 145.554688 82.636719 C 150.007812 76.785156 152.835938 70.726562 154.179688 64.167969 C 154.621094 61.996094 155.117188 57.613281 155.042969 56.480469 L 154.992188 55.597656 L 153.667969 55.5625 C 152.941406 55.5625 151.316406 55.652344 150.042969 55.773438 Z M 127.6875 78.375 C 127.6875 78.410156 127.546875 78.554688 127.386719 78.675781 C 127.105469 78.90625 127.085938 78.890625 127.316406 78.605469 C 127.546875 78.324219 127.6875 78.234375 127.6875 78.375 Z M 127.6875 78.375 " fill-opacity="1" fill-rule="nonzero"/><path fill="#a65a17" d="M 103.894531 139.183594 C 103.90625 145.105469 103.640625 146.726562 102.195312 149.546875 C 101.632812 150.648438 101.414062 150.949219 100.453125 151.902344 C 99.246094 153.117188 98.007812 153.992188 96.261719 154.863281 C 93.609375 156.207031 90.292969 157.101562 87.25 157.308594 C 83.382812 157.570312 80.03125 158.316406 77.898438 159.386719 C 76.265625 160.210938 75.164062 161.039062 73.132812 162.976562 C 71.941406 164.113281 71.90625 164.136719 69.976562 165.03125 C 68.222656 165.835938 66.386719 166.890625 66.511719 167.007812 C 66.535156 167.03125 66.785156 166.972656 67.0625 166.878906 C 67.335938 166.777344 68.632812 166.386719 69.941406 166.019531 C 73.121094 165.113281 73.71875 164.824219 75.132812 163.515625 C 76.65625 162.09375 77.597656 161.484375 79.136719 160.945312 C 80.308594 160.519531 80.570312 160.476562 82.085938 160.394531 C 83.003906 160.335938 84.472656 160.292969 85.359375 160.292969 L 86.953125 160.28125 L 86.496094 160.761719 C 86.242188 161.039062 85.78125 161.566406 85.460938 161.945312 C 83.707031 164.066406 81.777344 165.558594 79.160156 166.8125 C 77.769531 167.476562 76.0625 168.578125 75.003906 169.484375 C 73.855469 170.460938 72.871094 171.710938 71.972656 173.308594 C 71.445312 174.25 70.253906 175.363281 68.496094 176.554688 C 66.246094 178.070312 65.269531 179.140625 64.894531 180.492188 C 64.789062 180.90625 64.800781 180.882812 65.605469 180.046875 C 66.613281 178.976562 67.703125 178.199219 68.863281 177.714844 C 70.449219 177.0625 71.011719 176.726562 71.917969 175.878906 C 72.410156 175.417969 73.179688 174.546875 73.628906 173.949219 L 74.441406 172.847656 L 74.582031 173.824219 C 74.660156 174.363281 74.890625 175.464844 75.097656 176.292969 C 75.40625 177.496094 75.476562 177.980469 75.464844 178.816406 C 75.429688 180 75.28125 180.515625 74.613281 181.664062 C 74.363281 182.101562 74.179688 182.480469 74.203125 182.5 C 74.222656 182.523438 74.589844 182.214844 75.003906 181.8125 C 75.898438 180.964844 76.382812 180.046875 76.578125 178.816406 C 76.714844 177.957031 76.679688 177.484375 76.347656 175.488281 C 76.082031 173.949219 75.945312 172.046875 76.050781 171.496094 C 76.164062 170.910156 76.601562 170.4375 77.746094 169.679688 C 78.941406 168.898438 79.617188 168.566406 80.9375 168.132812 C 81.546875 167.925781 82.257812 167.570312 82.820312 167.191406 C 83.601562 166.664062 83.714844 166.617188 83.648438 166.847656 C 83.601562 166.996094 83.523438 168.1875 83.464844 169.519531 C 83.347656 172.585938 83.097656 173.46875 81.925781 174.859375 C 81.652344 175.203125 81.433594 175.5 81.457031 175.523438 C 81.476562 175.546875 81.707031 175.453125 81.972656 175.316406 C 82.949219 174.8125 84.039062 173.558594 84.601562 172.273438 C 84.910156 171.5625 85.152344 170.152344 85.242188 168.382812 C 85.371094 166.101562 85.804688 165.125 87.480469 163.425781 C 89.054688 161.828125 91.566406 160.394531 94.710938 159.304688 C 99.542969 157.628906 102.367188 156.183594 103.148438 154.964844 C 103.792969 153.96875 103.824219 154.335938 103.273438 156.433594 C 102.757812 158.363281 102.058594 160.335938 101.589844 161.152344 C 101.058594 162.082031 98.558594 164.597656 96.972656 165.8125 C 94.414062 167.753906 91.738281 170.199219 90.820312 171.414062 C 89.777344 172.804688 89.25 173.753906 88.410156 175.796875 C 87.171875 178.792969 86.78125 179.484375 85.714844 180.597656 C 85.199219 181.136719 84.429688 181.960938 84.015625 182.433594 C 83.359375 183.179688 82.992188 183.453125 81.375 184.429688 C 79.8125 185.382812 79.332031 185.738281 78.472656 186.609375 C 77.898438 187.195312 77.195312 188.023438 76.898438 188.457031 C 76.394531 189.226562 75.714844 190.582031 75.855469 190.582031 C 75.886719 190.582031 76.644531 189.859375 77.53125 188.976562 C 78.425781 188.089844 79.445312 187.160156 79.792969 186.898438 C 80.386719 186.460938 82.191406 185.476562 82.257812 185.554688 C 82.304688 185.601562 82.007812 187.460938 81.855469 188 C 81.789062 188.253906 81.660156 189.824219 81.558594 191.476562 C 81.421875 194.039062 81.351562 194.578125 81.167969 194.945312 C 81.042969 195.195312 80.824219 195.691406 80.699219 196.058594 C 80.558594 196.425781 80.320312 196.953125 80.148438 197.238281 L 79.847656 197.757812 L 80.332031 197.378906 C 80.949219 196.882812 81.523438 196.101562 82.03125 195.035156 C 82.351562 194.359375 82.5 193.808594 82.71875 192.523438 C 83.027344 190.628906 83.5 188.296875 83.761719 187.367188 C 83.867188 187.023438 84.210938 186.21875 84.53125 185.589844 C 85.140625 184.394531 85.4375 184.050781 87.621094 182.03125 C 88.171875 181.515625 88.664062 180.917969 88.984375 180.378906 L 89.488281 179.515625 L 89.683594 180.183594 C 90.179688 181.777344 90.292969 182.859375 90.28125 185.53125 C 90.269531 188.425781 90.179688 188.988281 89.304688 191.121094 C 89.066406 191.707031 88.90625 192.1875 88.925781 192.1875 C 89.066406 192.1875 89.949219 191.167969 90.351562 190.558594 C 91.40625 188.953125 91.855469 187.140625 91.933594 184.144531 C 91.980469 182.296875 91.945312 181.777344 91.726562 180.414062 C 91.441406 178.621094 91.453125 176.636719 91.773438 175.625 C 92.257812 174.042969 94.183594 171.769531 96.226562 170.371094 C 96.582031 170.128906 96.929688 169.921875 96.972656 169.921875 C 97.019531 169.921875 97.054688 170.242188 97.054688 170.632812 C 97.019531 172.308594 97.261719 173.332031 98.453125 176.578125 C 98.695312 177.246094 98.765625 177.65625 98.777344 178.414062 C 98.789062 179.300781 98.753906 179.472656 98.410156 180.171875 C 98.179688 180.632812 97.867188 181.066406 97.628906 181.238281 C 97.03125 181.699219 97.25 181.710938 97.949219 181.25 C 98.730469 180.746094 99.210938 180.21875 99.578125 179.507812 C 100.246094 178.152344 100.234375 177.300781 99.511719 174.742188 C 99.085938 173.273438 99.027344 172.941406 99.039062 171.929688 C 99.050781 169.839844 99.5 168.957031 101.792969 166.570312 C 103.183594 165.125 104.054688 163.964844 104.195312 163.414062 C 104.308594 162.964844 104.410156 163.125 104.445312 163.792969 C 104.457031 164.148438 104.652344 165.398438 104.871094 166.570312 C 105.859375 172 105.859375 173.628906 104.871094 176.292969 C 104.113281 178.359375 103.171875 180.113281 102.324219 181.113281 C 101.898438 181.605469 101.1875 182.457031 100.75 182.996094 C 100.3125 183.535156 99.726562 184.234375 99.453125 184.542969 C 98.304688 185.832031 96.882812 188.332031 96.433594 189.894531 C 95.882812 191.789062 95.402344 192.613281 93.792969 194.425781 C 91.992188 196.46875 91.867188 196.664062 91.121094 198.445312 C 90.796875 199.226562 90.351562 200.671875 90.351562 200.957031 C 90.351562 201.371094 90.558594 201.074219 91.246094 199.636719 C 91.96875 198.144531 91.980469 198.125 93.65625 196.390625 C 94.585938 195.4375 95.609375 194.359375 95.929688 193.992188 L 96.515625 193.324219 L 96.582031 193.875 C 96.617188 194.175781 96.722656 194.839844 96.824219 195.347656 C 97.101562 196.859375 97.261719 198.628906 97.179688 199.363281 C 97.066406 200.363281 96.503906 202.015625 95.988281 202.851562 C 95.425781 203.746094 95.023438 204.804688 95.078125 205.21875 C 95.113281 205.492188 95.171875 205.445312 95.722656 204.621094 C 96.054688 204.125 96.539062 203.4375 96.789062 203.09375 C 97.777344 201.761719 98.421875 200.144531 98.613281 198.582031 C 98.742188 197.480469 98.707031 196.929688 98.328125 194.382812 C 98.132812 193.097656 98.109375 191.671875 98.269531 190.800781 C 98.59375 189.101562 100.496094 186.3125 102.207031 185.039062 C 102.449219 184.855469 102.691406 184.578125 102.746094 184.429688 C 102.804688 184.28125 102.894531 184.15625 102.953125 184.15625 C 103.011719 184.15625 103.136719 184.808594 103.253906 185.613281 C 103.414062 186.816406 103.5625 187.335938 104.089844 188.675781 C 104.433594 189.574219 104.917969 190.675781 105.15625 191.132812 L 105.59375 191.972656 L 104.847656 194.347656 C 103.664062 198.15625 103.621094 198.386719 103.632812 200.566406 C 103.632812 202.242188 103.664062 202.589844 103.929688 203.574219 C 104.46875 205.574219 104.527344 205.605469 104.480469 203.941406 C 104.421875 201.519531 104.871094 198.960938 105.8125 196.449219 C 106.257812 195.253906 106.992188 193.679688 107.097656 193.679688 C 107.246094 193.679688 108.300781 195.4375 108.667969 196.296875 C 109.40625 197.984375 109.554688 199.074219 109.53125 202.347656 C 109.507812 205.585938 109.65625 206.8125 110.195312 207.972656 L 110.519531 208.660156 L 110.585938 206.824219 C 110.632812 205.8125 110.722656 204.515625 110.78125 203.953125 C 111.21875 199.996094 111.207031 198.492188 110.734375 196.664062 C 110.390625 195.3125 110.070312 194.578125 109.128906 193.015625 C 107.429688 190.179688 106.570312 188.34375 106.121094 186.566406 C 105.960938 185.921875 105.902344 185.300781 105.902344 184.097656 C 105.914062 182.605469 105.9375 182.421875 106.269531 181.445312 C 106.648438 180.355469 108.175781 176.84375 108.417969 176.511719 C 108.542969 176.339844 108.679688 176.441406 109.597656 177.394531 C 111.792969 179.679688 112.398438 180.46875 112.949219 181.800781 C 113.570312 183.269531 113.6875 184.441406 113.605469 188.171875 C 113.503906 192.832031 113.652344 193.359375 115.890625 196.722656 C 116.648438 197.859375 117.394531 199.066406 117.554688 199.398438 C 117.714844 199.71875 117.875 199.996094 117.910156 199.996094 C 118.011719 199.996094 117.703125 198.285156 117.484375 197.699219 C 117.382812 197.410156 116.863281 196.332031 116.335938 195.289062 C 115.546875 193.726562 115.351562 193.246094 115.246094 192.535156 C 115.0625 191.363281 115.234375 188.058594 115.476562 188.058594 C 115.511719 188.058594 115.808594 188.378906 116.117188 188.757812 C 116.796875 189.582031 118.910156 191.546875 120.34375 192.683594 C 120.894531 193.117188 121.535156 193.714844 121.753906 194.015625 C 122.25 194.65625 123.84375 197.800781 124.257812 198.960938 C 124.738281 200.269531 124.773438 200.292969 124.785156 199.132812 C 124.785156 197.398438 124.0625 194.933594 123.085938 193.3125 C 122.464844 192.304688 121.960938 191.765625 120.136719 190.214844 C 116.992188 187.539062 116.625 186.933594 115.820312 182.972656 C 115.464844 181.191406 114.925781 179.609375 114.339844 178.597656 C 114.15625 178.277344 113.582031 177.519531 113.066406 176.921875 C 111.089844 174.640625 110.378906 173.375 109.96875 171.496094 C 109.472656 169.199219 108.476562 164.035156 108.519531 164 C 108.542969 163.964844 108.796875 164.273438 109.070312 164.664062 C 110.875 167.246094 112.929688 169.429688 115.488281 171.460938 C 117.371094 172.964844 118.355469 173.917969 119.183594 175.03125 C 120.308594 176.535156 120.503906 177.015625 120.835938 179.140625 C 120.984375 180.160156 121.203125 181.386719 121.296875 181.859375 C 121.699219 183.730469 122.636719 184.808594 125.027344 186.164062 C 127.296875 187.449219 128.527344 188.835938 129.101562 190.753906 C 129.363281 191.648438 129.515625 191.800781 129.457031 191.132812 C 129.433594 190.835938 129.457031 190.320312 129.503906 189.984375 C 129.675781 188.976562 129.308594 187.828125 128.550781 186.957031 C 128.34375 186.726562 127.722656 186.230469 127.160156 185.851562 C 125.957031 185.039062 124.589844 183.777344 124.109375 183.019531 C 123.914062 182.71875 123.648438 182.167969 123.523438 181.8125 C 123.28125 181.113281 123.0625 179.378906 123.144531 178.804688 C 123.234375 178.164062 122.84375 176.121094 122.445312 175.109375 C 122.226562 174.558594 122.066406 174.101562 122.085938 174.078125 C 122.109375 174.042969 122.617188 174.214844 123.199219 174.433594 C 123.785156 174.664062 124.808594 175.03125 125.472656 175.257812 C 127.5625 175.972656 129.238281 177.117188 130.363281 178.585938 C 131.476562 180.046875 132.519531 182.617188 133.050781 185.152344 C 133.449219 187.070312 133.898438 188.160156 134.804688 189.386719 C 135.597656 190.46875 136.550781 191.375 137.730469 192.179688 L 138.800781 192.902344 L 138.570312 192.464844 C 138.445312 192.210938 138.066406 191.683594 137.730469 191.257812 C 136.066406 189.214844 135.769531 188.828125 135.515625 188.308594 C 135.367188 188.011719 135.183594 187.507812 135.117188 187.195312 C 135.046875 186.875 134.839844 186.003906 134.65625 185.246094 C 134.472656 184.488281 134.242188 183.328125 134.140625 182.675781 C 134.046875 182.019531 133.839844 181.125 133.703125 180.699219 C 133.554688 180.261719 133.449219 179.90625 133.472656 179.90625 C 133.507812 179.90625 133.738281 180.035156 134 180.183594 C 134.265625 180.34375 135.308594 180.804688 136.320312 181.226562 C 137.332031 181.640625 138.386719 182.121094 138.671875 182.285156 C 138.960938 182.445312 139.730469 183.109375 140.394531 183.753906 C 141.507812 184.820312 142.769531 185.84375 142.875 185.738281 C 142.953125 185.660156 142.21875 184.234375 141.703125 183.453125 C 140.808594 182.101562 139.683594 181.183594 137.640625 180.136719 C 135.527344 179.046875 133.828125 178.003906 132.683594 177.074219 C 129.800781 174.730469 128.320312 173.835938 125.1875 172.527344 C 121.214844 170.863281 120.160156 170.382812 119.308594 169.875 C 117.738281 168.933594 115.546875 166.800781 113.902344 164.609375 C 112.929688 163.3125 112.042969 161.96875 111.792969 161.40625 C 111.148438 160.003906 110.253906 155.105469 110.644531 155.113281 C 110.691406 155.113281 110.886719 155.332031 111.070312 155.585938 C 111.828125 156.617188 113.113281 157.285156 115.625 157.972656 C 117.886719 158.59375 119.023438 159.050781 120.195312 159.832031 C 121.753906 160.878906 122.191406 161.417969 123.328125 163.722656 C 124.96875 167.074219 125.566406 167.613281 129.582031 169.507812 C 131.019531 170.1875 132.316406 170.839844 132.476562 170.953125 C 132.957031 171.332031 132.96875 171.207031 132.519531 170.65625 C 132.109375 170.152344 129.527344 167.925781 128.042969 166.800781 C 127.09375 166.066406 126.472656 165.042969 125.53125 162.585938 C 125.347656 162.128906 124.875 161.210938 124.5 160.566406 L 123.785156 159.386719 L 124.542969 159.304688 C 126.347656 159.121094 129.664062 159.902344 131.40625 160.910156 C 132.335938 161.449219 133.578125 162.757812 134.5625 164.242188 C 135.734375 165.972656 137.273438 167.960938 137.859375 168.453125 C 138.109375 168.660156 138.8125 169.140625 139.417969 169.519531 C 140.554688 170.21875 142.230469 171.792969 143.253906 173.101562 C 144.207031 174.328125 144.261719 174.066406 143.402344 172.308594 C 142.554688 170.585938 142.082031 170.035156 140.199219 168.566406 C 138.304688 167.097656 138.476562 167.269531 137.546875 165.960938 C 136.628906 164.664062 136.402344 164.195312 136.617188 164.054688 C 136.847656 163.917969 138.84375 163.804688 139.671875 163.882812 C 141.691406 164.089844 142.792969 164.308594 144.308594 164.8125 C 145.617188 165.261719 146.304688 165.628906 146.984375 166.25 C 147.417969 166.640625 147.96875 166.9375 147.96875 166.765625 C 147.96875 166.730469 147.84375 166.457031 147.695312 166.15625 C 147.121094 165.03125 145.617188 163.792969 144.035156 163.136719 C 142.851562 162.644531 139.488281 162.003906 137.238281 161.828125 C 136.675781 161.785156 136.035156 161.679688 135.828125 161.589844 C 135.609375 161.507812 135.011719 161.027344 134.472656 160.519531 C 132.738281 158.902344 130.800781 157.800781 128.226562 156.976562 C 126.816406 156.515625 125.96875 156.332031 122.546875 155.734375 C 119.550781 155.207031 117.449219 154.496094 115.980469 153.496094 C 114.511719 152.507812 113.125 151.007812 112.148438 149.375 C 111.609375 148.457031 110.746094 146.519531 110.621094 145.933594 C 110.140625 143.566406 109.976562 141.664062 109.976562 138.265625 L 109.976562 135.601562 L 103.894531 135.601562 Z M 103.894531 139.183594 " fill-opacity="1" fill-rule="nonzero"/><g clip-path="url(#711efc8171)"><path fill="#4c5939" d="M 106.285156 0.402344 C 105.550781 0.679688 92.960938 7.921875 80.75 15.023438 C 67.386719 22.824219 47.660156 34.261719 28.980469 45 C 9.144531 56.441406 6.171875 58.257812 5.542969 59.484375 C 5.089844 60.355469 5.019531 67.527344 4.914062 116.640625 C 4.84375 156.203125 4.949219 173.308594 5.226562 174.605469 C 5.507812 176.039062 5.859375 176.632812 6.699219 177.296875 C 8.0625 178.277344 17.679688 183.910156 39.472656 196.398438 C 48.605469 201.644531 58.46875 207.308594 61.335938 208.988281 C 64.242188 210.667969 73.441406 215.984375 81.800781 220.8125 C 90.160156 225.605469 98.941406 230.675781 101.285156 232.078125 C 106.078125 234.910156 107.824219 235.363281 109.75 234.351562 C 111.007812 233.722656 136.371094 219.132812 148.089844 212.3125 C 152.144531 209.96875 158.828125 206.121094 162.957031 203.742188 C 167.082031 201.398438 176.003906 196.257812 182.71875 192.375 C 189.46875 188.457031 198.039062 183.523438 201.785156 181.355469 C 205.527344 179.1875 208.882812 177.15625 209.199219 176.84375 C 209.550781 176.527344 209.96875 175.375 210.179688 174.289062 C 210.425781 172.996094 210.527344 153.929688 210.457031 116.222656 C 210.355469 65.113281 210.320312 60.042969 209.792969 59.238281 C 209.199219 58.363281 201.015625 53.359375 187.441406 45.628906 C 183.3125 43.25 173.167969 37.410156 164.878906 32.582031 C 148.367188 23 116.957031 4.84375 112.199219 2.183594 C 109.261719 0.539062 107.371094 -0.0546875 106.285156 0.402344 Z M 117.445312 20.515625 C 126.332031 25.585938 175.6875 54.234375 187.792969 61.371094 C 190.976562 63.261719 194.367188 65.21875 195.3125 65.746094 L 197.0625 66.722656 L 196.992188 117.621094 L 196.886719 168.480469 L 192.445312 171.210938 C 186.8125 174.605469 114.332031 216.71875 109.890625 219.167969 C 107.792969 220.324219 107.652344 220.324219 106.742188 219.796875 C 105.691406 219.203125 99.886719 215.8125 80.925781 204.792969 C 67.421875 196.957031 51.890625 188 40.875 181.703125 C 36.746094 179.359375 29.925781 175.375 25.761719 172.855469 L 18.136719 168.308594 L 18.136719 66.96875 L 19.464844 66.164062 C 22.195312 64.414062 93.972656 22.648438 101.390625 18.449219 C 107.265625 15.128906 107.089844 15.234375 107.652344 15.199219 C 107.894531 15.199219 112.304688 17.574219 117.445312 20.515625 Z M 117.445312 20.515625 " fill-opacity="1" fill-rule="nonzero"/></g><g clip-path="url(#640f0cdb8a)"><g clip-path="url(#fceef4118c)"><g transform="matrix(1, 0, 0, 1, -0.000000000000003553, 111)"><g clip-path="url(#3d82ef612f)"><g clip-path="url(#ba42307ebb)"><g clip-path="url(#6fee14eccf)"><path fill="#ffffff" d="M 0.464844 0.09375 L 21.632812 0.09375 L 21.632812 21.261719 L 0.464844 21.261719 Z M 0.464844 0.09375 " fill-opacity="1" fill-rule="nonzero"/></g></g></g></g></g></g><g clip-path="url(#3af4237e83)"><g clip-path="url(#5a0e58a96a)"><g transform="matrix(1, 0, 0, 1, 5, 115)"><g clip-path="url(#f599233afe)"><g clip-path="url(#8709959ca4)"><g clip-path="url(#907b682eb5)"><path fill="#d9933d" d="M 0.046875 0.675781 L 12.050781 0.675781 L 12.050781 12.679688 L 0.046875 12.679688 Z M 0.046875 0.675781 " fill-opacity="1" fill-rule="nonzero"/></g></g></g></g></g></g><g clip-path="url(#a8de158c9f)"><g clip-path="url(#b226d6de3c)"><g transform="matrix(1, 0, 0, 1, 192, 111)"><g clip-path="url(#3e93a8b4e6)"><g clip-path="url(#00997df55c)"><g clip-path="url(#9ccdac1ba6)"><path fill="#ffffff" d="M 0.820312 0.09375 L 21.988281 0.09375 L 21.988281 21.261719 L 0.820312 21.261719 Z M 0.820312 0.09375 " fill-opacity="1" fill-rule="nonzero"/></g></g></g></g></g></g><g clip-path="url(#62b0d06435)"><g clip-path="url(#4c2f801bf1)"><g transform="matrix(1, 0, 0, 1, 197, 115)"><g clip-path="url(#d40df1e56d)"><g clip-path="url(#9e34df82c9)"><g clip-path="url(#712aaf6963)"><path fill="#d9933d" d="M 0.402344 0.675781 L 12.40625 0.675781 L 12.40625 12.679688 L 0.402344 12.679688 Z M 0.402344 0.675781 " fill-opacity="1" fill-rule="nonzero"/></g></g></g></g></g></g><g clip-path="url(#cdec5d3102)"><g clip-path="url(#b454a00e32)"><g transform="matrix(1, 0, 0, 1, 100, 43)"><g clip-path="url(#40506df144)"><g clip-path="url(#cda5a548e7)"><g clip-path="url(#ed73040866)"><path fill="#d9933d" d="M 0.996094 0.539062 L 13.003906 0.539062 L 13.003906 12.542969 L 0.996094 12.542969 Z M 0.996094 0.539062 " fill-opacity="1" fill-rule="nonzero"/></g></g></g></g></g></g></g></g></svg>